{"title":"Grown Ups 2 TS XViD-UNiQUE","uid":8734426,"size":740608000,"categoryP":"video","categoryS":"movies","magnet":"?xt=urn:btih:e01d6487432156ef73d4a4881c2228825e6e8476&amp;dn=Grown+Ups+2+TS+XViD-UNiQUE&amp;tr=udp%3A%2F%2Ftracker.openbittorrent.com%3A80&amp;tr=udp%3A%2F%2Fopen.demonii.com%3A1337&amp;tr=udp%3A%2F%2Ftracker.coppersurfer.tk%3A6969&amp;tr=udp%3A%2F%2Fexodus.desync.com%3A6969","seeders":1,"leechers":0,"uploader":"HeroMaster","files":-1,"time":1374661268,"description":"Grown Ups 2 TS XViD-UNiQUE\n\n\nSource Used FREE - Thanks\n &lt;a href=&quot;\nhttp://www.imdb.com/title/tt2191701&quot; rel=&quot;nofollow&quot; target=&quot;_NEW&quot;&gt;\nhttp://www.imdb.com/title/tt2191701&lt;/a&gt;\n\n\nFormat : AVI\nFormat/Info : Audio Video Interleave\nFile size : 701 MiB\nDuration : 1h 34mn\nOverall bit rate : 1 039 Kbps\nWriting application : VirtualDubMod 1.5.10.2 (build 2540/release)\nWriting library : VirtualDubMod build 2540/release\n\nVideo\nID : 0\nFormat : MPEG-4 Visual\nFormat profile : Advanced Simple@L5\nFormat settings, BVOP : 2\nFormat settings, QPel : No\nFormat settings, GMC : No warppoints\nFormat settings, Matrix : Default (H.263)\nMuxing mode : Packed bitstream\nCodec ID : XVID\nCodec ID/Hint : XviD\nDuration : 1h 34mn\nBit rate : 901 Kbps\nWidth : 642 pixels\nHeight : 342 pixels\nDisplay aspect ratio : 1.85:1\nFrame rate : 25.000 fps\nColor space : YUV\nChroma subsampling : 4:2:0\nBit depth : 8 bits\nScan type : Progressive\nCompression mode : Lossy\nBits/(Pixel*Frame) : 0.164\nStream size : 608 MiB (87%)\nWriting library : XviD 64\n\nAudio\nID : 1\nFormat : MPEG Audio\nFormat version : Version 1\nFormat profile : Layer 3\nCodec ID : 55\nCodec ID/Hint : MP3\nDuration : 1h 34mn\nBit rate mode : Constant\nBit rate : 128 Kbps\nChannel(s) : 2 channels\nSampling rate : 44.1 KHz\nCompression mode : Lossy\nStream size : 86.3 MiB (12%)\nAlignment : Split accross interleaves\nInterleave, duration : 40 ms (1.00 video frame)\nInterleave, preload duration : 500 ms\n\n\nAfter moving his family back to his hometown to be with his friends and their kids, Lenny finds out that between old bullies, new bullies, schizo bus drivers, drunk cops on skis, and 400 costumed party crashers sometimes crazy follows you.\n\nI could talk crap like some are gonna and say source AOE ,simple truth is time \nnot on my hands so re-encode of free release ;-) bitch all you want its better.\n\n\nPoster:\n\n &lt;a href=&quot;\nhttp://i.imgur.com/F01oFKr.jpg&quot; rel=&quot;nofollow&quot; target=&quot;_NEW&quot;&gt;\nhttp://i.imgur.com/F01oFKr.jpg&lt;/a&gt;\n\n\nScreenshots:\n\n &lt;a href=&quot;\nhttp://i.imgur.com/3Nq67Nw.jpg&quot; rel=&quot;nofollow&quot; target=&quot;_NEW&quot;&gt;\nhttp://i.imgur.com/3Nq67Nw.jpg&lt;/a&gt;\n\n\nSEED AND ENJOY!","torrent":{"xt":"urn:btih:e01d6487432156ef73d4a4881c2228825e6e8476","amp;dn":"Grown+Ups+2+TS+XViD-UNiQUE","amp;tr":["udp%3A%2F%2Ftracker.openbittorrent.com%3A80","udp%3A%2F%2Fopen.demonii.com%3A1337","udp%3A%2F%2Ftracker.coppersurfer.tk%3A6969","udp%3A%2F%2Fexodus.desync.com%3A6969"],"infoHash":"e01d6487432156ef73d4a4881c2228825e6e8476","infoHashBuffer":{"type":"Buffer","data":[224,29,100,135,67,33,86,239,115,212,164,136,28,34,40,130,94,110,132,118]},"announce":[],"urlList":[]}}